<svg width="64" height="64" xmlns="http://www.w3.org/2000/svg"><path fill="#fff" d="M21.94 63.054c1.586.32 2.166-.692 2.166-1.543 0-.745-.052-3.299-.052-5.96-8.874 1.916-10.722-3.83-10.722-3.83-1.427-3.725-3.54-4.683-3.54-4.683-2.904-1.969.212-1.969.212-1.969 3.222.213 4.912 3.3 4.912 3.3 2.852 4.894 7.447 3.511 9.296 2.66.264-2.076 1.11-3.512 2.007-4.31-7.078-.745-14.524-3.512-14.524-15.857 0-3.512 1.266-6.385 3.274-8.62-.317-.797-1.426-4.097.317-8.513 0 0 2.694-.852 8.767 3.299a30.7 30.7 0 0 1 15.951 0c6.074-4.15 8.768-3.3 8.768-3.3 1.743 4.417.633 7.717.317 8.514 2.06 2.235 3.274 5.108 3.274 8.62 0 12.345-7.446 15.058-14.577 15.857 1.162 1.01 2.165 2.926 2.165 5.96 0 4.309-.052 7.768-.052 8.832 0 .851.581 1.863 2.165 1.543a31.997 31.997 0 1 0-20.123 0z"/></svg>