<svg width="64" height="64" xmlns="http://www.w3.org/2000/svg"><circle cx="32" cy="32" r="32" fill="#29abe0"/><path d="M46.911 17.297a11.037 11.037 0 0 1 11.035 11.035v.649A11.037 11.037 0 0 1 46.91 40.018h-3.16v3.322a5.09 5.09 0 0 1 -5.094 5.092H14.604a5.09 5.09 0 0 1 -5.092-5.092V19.845a2.547 2.547 0 0 1 2.547-2.548zm-3.161 5.891v10.939h2.882a5.47 5.47 0 1 0 0-10.939z" fill="#fff"/><path d="M25.946 27.67q1.18-3.454 5.595-3.454c4.412 0 6.05 5.492 3.734 9.081q-2.311 3.591-9.329 9.081-7.017-5.49-9.33-9.081c-2.314-3.59-.674-9.081 3.736-9.081q4.415 0 5.594 3.453" fill="#ff5e5b"/></svg>