<svg width="16" height="16" xmlns="http://www.w3.org/2000/svg"><path d="M9.737 10.534a2.5 2.5 0 0 1-1.524.14l-1.106 1.914a1.547 1.547 0 0 1-2.679-1.546L6.196 7.98a1.25 1.25 0 0 1 1.811-.485.625.625 0 0 0 .624-1.082 2.5 2.5 0 0 0-3.518.942l-1.767 3.061a2.796 2.796 0 0 0 4.843 2.797zM7.769 4.948a2.5 2.5 0 0 1 1.391.642l1.913-1.105a1.546 1.546 0 0 1 1.547 2.678L9.558 8.931a1.25 1.25 0 0 1-1.811-.485.625.625 0 0 0-1.082.625 2.5 2.5 0 0 0 3.518.943l3.062-1.768a2.797 2.797 0 0 0-2.797-4.844z" fill="#def"/><path d="M4.5 4.5 3 3m3.5.5-.5-2m-2.5 5-2-.5" fill="none" stroke="#def" stroke-linecap="round" stroke-width="1.25"/></svg>
