<svg width="16" height="16" xmlns="http://www.w3.org/2000/svg"><path d="M8.382 2.376a1 1 0 0 1 1.036.83l.043.214a1.4 1.4 0 0 0 1.9 1.064l.213-.072a1 1 0 0 1 1.259.455l.382.642a1 1 0 0 1-.224 1.285l-.17.142a1.4 1.4 0 0 0 0 2.128l.17.142a1 1 0 0 1 .224 1.285l-.382.642a1 1 0 0 1-1.26.455l-.212-.072A1.4 1.4 0 0 0 9.46 12.58l-.042.214a1 1 0 0 1-1.036.83h-.764a1 1 0 0 1-1.036-.83l-.043-.214a1.4 1.4 0 0 0-1.9-1.064l-.213.072a1 1 0 0 1-1.259-.455l-.382-.642a1 1 0 0 1 .224-1.285l.17-.142a1.4 1.4 0 0 0 0-2.128l-.17-.142a1 1 0 0 1-.224-1.285l.382-.642a1 1 0 0 1 1.26-.455l.212.072a1.4 1.4 0 0 0 1.9-1.064l.043-.214a1 1 0 0 1 1.036-.83ZM8 10a2 2 0 0 0 0-4 2 2 0 0 0 0 4Z" fill="#def" stroke="#000"/></svg>
