<svg width="16" height="16" xmlns="http://www.w3.org/2000/svg"><path d="M8.478.97a1.25 1.25 0 0 1 1.295 1.037l.053.268a1.75 1.75 0 0 0 2.375 1.33l.266-.09a1.25 1.25 0 0 1 1.574.569l.478.802a1.25 1.25 0 0 1-.28 1.606l-.212.178a1.75 1.75 0 0 0 0 2.66l.212.178a1.25 1.25 0 0 1 .28 1.606l-.478.802a1.25 1.25 0 0 1-1.574.569l-.266-.09a1.75 1.75 0 0 0-2.376 1.33l-.052.268a1.25 1.25 0 0 1-1.295 1.037h-.956a1.25 1.25 0 0 1-1.295-1.037l-.053-.268a1.75 1.75 0 0 0-2.375-1.33l-.266.09a1.25 1.25 0 0 1-1.574-.569l-.478-.802a1.25 1.25 0 0 1 .28-1.606l.212-.178a1.75 1.75 0 0 0 0-2.66l-.212-.178a1.25 1.25 0 0 1-.28-1.606l.478-.802a1.25 1.25 0 0 1 1.574-.569l.266.09a1.75 1.75 0 0 0 2.375-1.33l.053-.268A1.25 1.25 0 0 1 7.522.97ZM8 10.5a2.5 2.5 0 0 0 0-5a2.5 2.5 0 0 0 0 5Z" fill="#def"/></svg>
