<svg width="16" height="16" xmlns="http://www.w3.org/2000/svg"><mask id="a"><path d="M0 0h16v16h-16z" fill="#fff"/><path d="M5 5.5v.9M4.125 10.25c1.375 2 5.875 2 7.25 0" fill="none" stroke="#000" stroke-width="1.12" stroke-linecap="round"/></mask><mask id="b"><path d="M0 0h16v16h-16z"/><path d="M8.293 2.219h3.291a2.2 2.2 0 012.2 2.2v7.164a2.2 2.2 0 01-2.2 2.2h-2.15c-.434-1.283-.5-3.533-.5-4.67V8.53h-2.047c.048-1.963.613-4.53 1.406-6.311z" fill="#fff"/></mask><path d="M4.418 1.055a3.364 3.364 0 00-3.364 3.364v7.164a3.364 3.364 0 003.364 3.364h7.164a3.364 3.364 0 003.364-3.364v-7.165a3.364 3.364 0 00-3.364-3.364zM8.293 2.219h3.291a2.2 2.2 0 012.2 2.2v7.164a2.2 2.2 0 01-2.2 2.2h-2.15c-.434-1.283-.5-3.533-.5-4.67V8.53h-2.047c.048-1.963.613-4.53 1.406-6.311z" fill="#def" mask="url(#a)"/><path d="M10.5 6.4v-.9M4.125 10.25c1.375 2 5.875 2 7.25 0" fill="none" stroke="#def" stroke-width="1.12" stroke-linecap="round" mask="url(#b)"/></svg>