<svg height="16" width="16" xmlns="http://www.w3.org/2000/svg"><circle fill="#00f" cx="11.1" cy="10.672" r="4.9"/><circle fill="red" cx="8" cy="5.328" r="4.9"/><circle fill="#0f0" cx="4.9" cy="10.672" r="4.9"/><path fill="#f0f" d="M8 6.879a4.9 4.9 0 011.738 3.024 4.9 4.9 0 003.087-3.817A4.9 4.9 0 008 6.88"/><path fill="#0ff" d="M9.738 9.915A4.9 4.9 0 016.26 9.915 4.9 4.9 0 008 14.465a4.9 4.9 0 001.738-4.561"/><path d="M6.26 9.915A4.9 4.9 0 018 6.879 4.9 4.9 0 003.146 6.097 4.9 4.9 0 006.26 9.915" fill="#ff0"/><path fill="#fff" d="M8 6.879A4.9 4.9 0 006.26 9.915 4.9 4.9 0 009.74 9.915 4.9 4.9 0 008 6.879"/></svg>