<svg width="128" height="128" viewBox="0 0 128 128" xmlns="http://www.w3.org/2000/svg"><linearGradient id="a" x2="1"><stop stop-color="#3d81bb" offset=".2"/><stop stop-color="#3461ac" offset="1"/></linearGradient><path d="M113.637 83.541C113.637 94.884 111 104 108 108s-9 13.5-25 17-30 3-45-4-25-20-21-42l9-8q23 51 79 18z" fill="#4b8cbe"/><path d="M41.86 87.5C45 92.5 48.5 96 56 98c15 3 23-1.5 27-7.5 1.5-2.5 1.25-8 .5-10l28.075-10.8c.925 3.8 1.925 8.8 2.062 13.8C102.5 111 77 115 64 114.5c-25.5-2.5-32-14-35.5-20.5C25 86 26 77.5 26 72z" fill="url(#a)"/><path d="M17 79c3.5-15 12-23 18-27 2-1-3 18 7 35.8C32 83.5 27 77 26 73c-2 3-6 5-9 6z" fill="#e0e0e0"/><path d="M64.53 78.08C61.5 76 57 71.5 59.5 70.5 74.5 66 81 50 82 45.5c1-1 8 8.5 9 13 3-2.5 7.5-7.5 8.5-13 1-1 9 12.5 12.1 24.7C103 73.5 98.5 83.5 97 82z" fill="#5cb0cb"/><path d="M94 85c-2-3-5.5-3.5-7.5-3.5s-3.5 0-8.5.5-12.5-2-14.7-4.9C63 76.8 66 74 71 74.5c10 1 18.5.5 21.5-3 1-1 8.5 6.5 7.5 8.2-3 3.8-5 6.8-6 5.3z" fill="#9fd3dd"/><path d="M78.5 66.5s4.5 5 9 1" fill="none" stroke="#3461ac" stroke-width="2.5" stroke-linecap="round"/><path d="M25.5 38C23 47 25 52 21 53c-2.5 1-3.5-6-3.5-9s.5-7 1-10S23 21 26 18s8-7 12.5-9.5C46.5 4 57 1 64.5 1 74.5 1 82 3 87 6.5c2 1.5 5 2 6 3.5s2.5 3.5-1.5 5c-2.5.5-5 1-7.5 0s-10-2-14.5-3.5zm80-20c2 1 4.5 6 3.5 9s-6-3-10-5-2-5-.5-6c3-1.5 6 1.5 7 2z" fill="#e24a4a"/><path d="M77.5 11.5s5.5 2.5 6 5-2.5 2.5-5.5 4q-32-5.5-47.5 21s-1 1-2.5.5c-3-1-2.5-4-2.5-6s1.5-9 8-15 11-7.5 14-9 6-3 10-3.5 8.5 0 12 .5 6 2 8 2.5zm9 9.5c-.5-1.5 1-3.5 4-1.5s7 5.5 7 7.5-1.5 2.5-3.5 1.5-3-2.5-5.5-2.5c-2.5.5-3.5-1-2.5-2s3.5-1 .5-3z" fill="#8ae14d"/><path d="M78 20.5c-3.5 1.5-2 4-5 5s-6 .5-9-.5-4.5-.5-7 0c-6.5 1.5-14 7-15.5 10.5S40 45 38.5 46s-1-3.5-3.5-2-2.5 3.5-3.5 4-3.5 1-3-2.5 3.5-7.5 4-9.5 1.5-4 3-6 4.5-5 8.5-8 11-6 15.5-6C69 16 73 19.5 78 20.5z" fill="#6161e5"/></svg>