<svg width="128" height="128" viewBox="0 0 128 128" xmlns="http://www.w3.org/2000/svg"><linearGradient id="a" x2="1"><stop offset=".2" stop-color="#3d85cc"/><stop offset="1" stop-color="#3060bf"/></linearGradient><path d="M114 83.5c0 12.5-3 20.5-5.5 24.5s-9 13.5-25 17-30 3-45-4S13 101 17 79l9-8 28 39z" fill="#4c90bf"/><path d="M42 87.8c3 4.7 6.5 8.2 14 10.2 15 3 23-1.5 27-7.5 1.5-2.5 1.25-8 .5-10L113 70c1 4.5 1 9 1 13.5-11.5 27.5-37 31.5-50 31-25.5-2.5-32-14-35.5-20.5C25 86 26 77.5 26 72z" fill="url(#a)"/><path d="M17 79c3.5-15 12-23 18-27 2-1-3 18 7 35.8C32 83.5 27 77 26 73c-2 3-6 5-9 6z" fill="#dde"/><path d="M65.5 78c-3-2-7.5-6.5-5-7.5C75.5 66 82 50 83 45.5c1-1 8 8.5 9 13 3-2.5 7.5-7.5 8.5-13 1-1 10 12 12.5 24.5-9 3.5-13.5 13.5-15 12z" fill="#62bcd9"/><path d="M95 85c-2-3-5.5-3.5-7.5-3.5s-3.5 0-8.5.5-12.5-2-14.7-4.84C64 76.8 67 74 72 74.5c10 1 18.5.5 21.5-3 1-1 8.5 6.5 7.5 8.31-3 3.8-5 6.8-6 5.3z" fill="#a1dae6"/><path d="M88.5 67.5s-5 4-9-1" fill="none" stroke="#3461ac" stroke-width="2.5" stroke-linecap="round"/><path d="M26.5 37.5C24.5 46.5 24 50 22 50s-4.5-2-4.5-8 4-21.5 18.5-32.5S74-1 88 7c3 2 6 4 7 6s-3.5 5.5-12.5 0H47.5zm80-18c2 2 4 5 3 7s-5-2.5-9-4-2-5-.5-6c3-2 5.5 2 6.5 3z" fill="#f24949"/><path d="M78 11s5.5 1.5 7.5 4 1.5 7-6 5h-27L33 40S32.5 42 29.5 41.5s-3.5-4-3-6S30 27 34 22 53 2 78 11zm13 12c-1.5-1 1-3.5 4-1.5s7 5.5 7 7.5-1.5 2.5-3.5 1.5-3-2.5-5.5-2.5-3-1-2.5-2 3.5-1 .5-3z" fill="#8ff249"/><path d="M79.5 20c-3.5 2-1.5 3.5-4 5s-4.5 0-9.5-.5C50 23 42 38 40.5 45.5c-.5 4-2.5 1-3.5 0s-2 2-3.5 3-2.5 1-2.5-1.5 3.5-12.5 6-16 12-16.5 28.5-15c6.5 1 10.5 2.5 14 4z" fill="#5555f2"/></svg>