<svg width="128" height="128" xmlns="http://www.w3.org/2000/svg"><linearGradient id="a" x2="1"><stop stop-color="#3d81bb" offset=".2"/><stop stop-color="#3461ac" offset="1"/></linearGradient><path d="M109.6 85c.76 10-1.426 17.843-3.448 21.749-2.629 5.078-10.171 13.619-22.252 16.934-10.833 2.973-27.854 3.57-44.9-4.683-14.183-7.86-24.849-18.984-20.7-39.61 4.558-2.472 7.898-6.226 8.108-6.465Q49 125 104 89Z" fill="#4b8cbe"/><path d="M45.07 87.792c1.848 4.91 4.71 8.376 10.262 10C72.056 102.67 82.079 95.901 84 91c1.87-2.983 1.135-7.983.94-8.983Q93 72 108.327 70.589C109.5 74.5 110 90 109.628 92 97.602 108.694 76.65 114.442 64 114c-24.903-2.198-31.091-13.739-35-20-3-8-3-16.33-2.669-21z" fill="url(#a)"/><path d="M18.275 79.583c.681-3.483 1.827-7.234 3.502-11.28 1.151-2.783 6.51-14.368 8.551-15.245C32 61 36 66 39 72c3 6 4 11 6.077 15.782-12.51-3.649-18.682-14.685-18.682-14.685s-3.425 3.91-8.064 6.455l-.056.031Z" fill="#e0e0e0"/><path d="M63 80c-3-2-7.063-6.314-5.043-7.036C72.271 67.85 78 52 78.854 47.16 84 51 87 56 88 60c3.973-3.248 7-8 8-13 1-1 9.07 11.804 12.327 23.589C100.197 74 96 84 93 85q0-7-23-4z" fill="#5cb0cb"/><path d="M91.783 86.914C91 83 87.162 81.836 84.979 82.058s-3.925 1.457-8.66 1.945C71 85 64 82 61.928 79.184c0 0 3.377-2.127 7.243-2.105 14.567.085 20.216.027 22.754-3.611C94.5 76 97.5 80.5 96.5 81.5c-1.684 2.425-2.59 4.321-4.5 5.5-.149.084-.183 0-.217-.069z" fill="#9fd3dd"/><path d="M77 68s3 5 9 1" fill="none" stroke="#3461ac" stroke-width="2.25" stroke-linecap="round"/><path d="M26.263 35.735c-.211.203-1.765 2.864-1.951 4.168-.409 2.862-.182 6.236-1.501 8.875-.617 1.233-.418 4.681-2.415 4.241-.931-.205-1.37-7.04-1.37-9.397 0-2.581-.035-7.18.587-9.694.895-3.616 4.993-12.668 6.917-15.233C28.832 15.626 34 13 38 10c9-6 19-8 22-8 15 1 18 1 24 4 3 1 4.709 1.8 6.142 4.538C91.574 13.276 92.515 13.834 89 15c-2.57.822-4.861 1.221-7 0-3-1-4-2-8-2Q44 9 27 35zM101 18c2.057.971 5.163 8.247 3.385 8.508-1.777.26-5.226.029-6.663-1.532-1.434-1.563-3.212-1.62-3.288-4.326-.076-2.705-1-3.316.114-4.357 1.113-1.041 1.553-2.13 3.289-.748C99.574 16.925 98.944 17.03 101 18z" fill="#e24a4a"/><path d="M73.815 12.585s4.632 2.185 5.02 5.007C79.153 19.902 77.976 19.4 74 21q-29-5-41 20c-3.291.405-3.624.311-4.287.179-2.372-.472-2.448-4.982-2.45-5.411s.809-9.653 6.764-13.798C39 17.824 43 16 46 14s5.936-2.764 9.425-3.86c3.489-1.095 5.223.387 9.394 0 2.239-.207 5.663.981 8.996 2.445zM82 21c-.595-1.095 1.005-3.232 3.507-1.236C88.009 21.76 92 25 92 27s-1.41 2.005-3.054 1.476c-1.882-.558-3.604-2.306-5.23-2.495-2.443.33-3.183-.689-2.028-2.009 1.154-1.322 1.931-.136 1.419-1.421-.512-1.285-.45-.538-1.043-1.633z" fill="#8ae14d"/><path d="M74 21c-3.164 1.799-1.902 3.363-4.264 5-2.362 1.654-5.787.803-8.754-.406C58 25 57 25 55 25c-7 3-13 7-15 10s-.864 9.44-2.257 10.286c-1.393.845-.936-3.236-2.831-1.772-1.895 1.464-2.336 3.649-3.59 3.646-1.254 0-2.939 1-2.609-2.246s3-7.05 3.207-9.05 1.42-4.393 2.405-5.524C35.325 29.21 39 25 43 23s10-6 14-6c9 0 11.948 2.591 17 4z" fill="#6161e5"/></svg>