<svg width="128" height="128" viewBox="0 0 128 128" xmlns="http://www.w3.org/2000/svg"><linearGradient id="a" x2="1"><stop stop-color="#3d81bb" offset=".2"/><stop stop-color="#3461ac" offset="1"/></linearGradient><path d="M112.735 83.886c0 11.253-2.557 19.948-5.626 24.552-3.07 5.115-10.917 12.91-23.276 16.3-11.082 3.042-28.494 3.653-45.932-4.79-14.507-8.041-25.421-19.42-21.166-40.521 4.652-2.53 8.07-6.37 8.284-6.614q23.267 53.016 79.532 16.188z" fill="#4b8cbe"/><path d="M41.636 87.978c3.07 4.605 6.651 8.185 14.322 10.23 14.835 3.07 22.508-1.536 26.087-7.161 1.913-3.052 1.536-8.185 1.023-10.23l27.621-10.65c1.024 3.49 2.047 8.605 2.046 13.719-11.254 27.11-36.163 31.142-49.104 30.69-25.476-2.249-31.806-14.055-35.805-20.46-3.07-8.185-3.07-16.706-2.73-21.483z" fill="url(#a)"/><path d="M16.854 79.367c.697-3.563 1.87-7.4 3.583-11.539 1.177-2.847 7.9-16.678 8.412-15.655 2.046 14.322 7.161 26.598 12.787 35.805-10.161-3.956-16.475-15.246-16.475-15.246s-3.504 4-8.25 6.604l-.057.031z" fill="#e0e0e0"/><path d="M64.018 78.468c-2.996-2.151-6.996-6.707-4.905-7.373 14.818-4.718 21.24-20.717 22.523-25.06 1.023-1.023 7.672 8.695 8.655 12.879 4.178-3.179 7.443-7.929 8.736-12.879 1.023-1.023 8.85 12.393 11.76 24.557-8.433 3.197-13.08 13.271-16.184 14.186q.25-7.156-23.372-4.91z" fill="#5cb0cb"/><path d="M93.452 85.638c-1.937-3.138-5.678-3.798-7.724-3.798s-3.377.868-8.544.671c-5.13.333-12.215-1.962-14.233-4.914 0 0 2.196-2.159 7.432-2.407 12.276.512 18.538.086 21.607-3.494.899-.598 9.083 6.563 8.06 7.586-3.644 4.335-5.593 6.903-6.598 6.356z" fill="#9fd3dd"/><path d="M78 67s4 5 9 1" fill="none" stroke="#3461ac" stroke-width="2.455" stroke-linecap="round"/><path d="M25.585 36.661c-.23.215-1.914 3.018-2.116 4.392-.444 3.016-.197 6.57-1.628 9.351-.669 1.3-.453 4.933-2.618 4.47-1.01-.217-1.486-7.42-1.486-9.903 0-2.72-.039-7.565.636-10.214.97-3.81 5.414-13.348 7.501-16.05 2.496-3.234 8.1-6.001 12.438-9.162 9.76-6.323 20.603-8.43 23.856-8.43C78.434 2.17 81.687 2.17 88.193 5.33c3.253 1.054 5.107 1.896 6.66 4.781s2.574 3.473-1.238 4.702c-2.787.867-5.271 1.287-7.59 0-3.254-1.054-4.338-2.107-8.676-2.107Q44.818 8.49 26.384 35.886zm81.043-18.687c2.23 1.023 5.599 8.69 3.67 8.965-1.927.274-5.667.03-7.225-1.615-1.555-1.647-3.483-1.706-3.565-4.557-.082-2.851-1.085-3.495.122-4.591 1.208-1.097 1.685-2.245 3.568-.788 1.883 1.453 1.2 1.564 3.43 2.586z" fill="#e24a4a"/><path d="M77.149 12.269s5.023 2.302 5.443 5.275c.345 2.435-.93 1.905-5.243 3.591Q45.902 15.867 32.89 42.21c-3.567.427-3.928.327-4.648.188-2.573-.497-2.654-5.249-2.656-5.701s.876-10.172 7.335-14.539c6.476-4.367 10.814-6.29 14.067-8.398s6.437-2.912 10.22-4.067c3.784-1.154 5.664.408 10.187 0 2.427-.218 6.14 1.033 9.755 2.577zm8.988 9.214c-.644-1.154 1.09-3.406 3.802-1.302 2.715 2.103 7.042 5.517 7.042 7.624s-1.53 2.113-3.312 1.555c-2.04-.587-3.908-2.43-5.671-2.629-2.65.348-3.452-.726-2.2-2.117 1.362-.574 3.408-1.085.339-3.131z" fill="#8ae14d"/><path d="M77.35 21.135c-3.432 1.896-2.063 3.544-4.625 5.269-2.561 1.743-6.275.846-9.493-.428-3.233-.626-4.317-.626-6.486-.626-7.59 3.161-14.097 7.376-16.265 10.537s-.938 9.946-2.448 10.839c-1.51.89-1.015-3.41-3.07-1.868-2.055 1.542-2.532 3.845-3.893 3.842-1.36 0-3.187 1.054-2.829-2.367s3.253-7.428 3.479-9.536 1.538-4.629 2.607-5.82c1.085-1.191 5.07-5.627 9.407-7.734s10.843-6.323 15.181-6.323c9.76 0 12.956 2.73 18.434 4.215z" fill="#6161e5"/></svg>