<svg width="320" height="128" viewBox="0 0 320 128" xmlns="http://www.w3.org/2000/svg"><linearGradient id="a" x2="1"><stop stop-color="#3d81bb" offset=".2"/><stop stop-color="#3461ac" offset="1"/></linearGradient><path d="M113.637 83.541C113.637 94.884 111 104 108 108s-9 13.5-25 17-30 3-45-4-25-20-21-42l9-8q23 51 79 18z" fill="#4b8cbe"/><path d="M41.86 87.5C45 92.5 48.5 96 56 98c15 3 23-1.5 27-7.5 1.5-2.5 1.25-8 .5-10l28.075-10.8c.925 3.8 1.925 8.8 2.062 13.8C102.5 111 77 115 64 114.5c-25.5-2.5-32-14-35.5-20.5C25 86 26 77.5 26 72z" fill="url(#a)"/><path d="M17 79c3.5-15 12-23 18-27 2-1-3 18 7 35.8C32 83.5 27 77 26 73c-2 3-6 5-9 6z" fill="#e0e0e0"/><path d="M64.53 78.08C61.5 76 57 71.5 59.5 70.5 74.5 66 81 50 82 45.5c1-1 8 8.5 9 13 3-2.5 7.5-7.5 8.5-13 1-1 9 12.5 12.1 24.7C103 73.5 98.5 83.5 97 82z" fill="#5cb0cb"/><path d="M94 85c-2-3-5.5-3.5-7.5-3.5s-3.5 0-8.5.5-12.5-2-14.7-4.9C63 76.8 66 74 71 74.5c10 1 18.5.5 21.5-3 1-1 8.5 6.5 7.5 8.2-3 3.8-5 6.8-6 5.3z" fill="#9fd3dd"/><path d="M87.5 67.5s-5 4-9-1" fill="none" stroke="#3461ac" stroke-width="2.5" stroke-linecap="round"/><path d="M25.5 38C23 47 25 52 21 53c-2.5 1-3.5-6-3.5-9s.5-7 1-10S23 21 26 18s8-7 12.5-9.5C46.5 4 57 1 64.5 1 74.5 1 82 3 87 6.5c2 1.5 5 2 6 3.5s2.5 3.5-1.5 5c-2.5.5-5 1-7.5 0s-10-2-14.5-3.5zm80-20c2 1 4.5 6 3.5 9s-6-3-10-5-2-5-.5-6c3-1.5 6 1.5 7 2z" fill="#e24a4a"/><path d="M77.5 11.5s5.5 2.5 6 5-2.5 2.5-5.5 4q-32-5.5-47.5 21s-1 1-2.5.5c-3-1-2.5-4-2.5-6s1.5-9 8-15 11-7.5 14-9 6-3 10-3.5 8.5 0 12 .5 6 2 8 2.5zm9 9.5c-.5-1.5 1-3.5 4-1.5s7 5.5 7 7.5-1.5 2.5-3.5 1.5-3-2.5-5.5-2.5c-2.5.5-3.5-1-2.5-2s3.5-1 .5-3z" fill="#8ae14d"/><path d="M78 20.5c-3.5 1.5-2 4-5 5s-6 .5-9-.5-4.5-.5-7 0c-6.5 1.5-14 7-15.5 10.5S40 45 38.5 46s-1-3.5-3.5-2-2.5 3.5-3.5 4-3.5 1-3-2.5 3.5-7.5 4-9.5 1.5-4 3-6 4.5-5 8.5-8 11-6 15.5-6C69 16 73 19.5 78 20.5z" fill="#6161e5"/><path d="m156.368 52.848-2.352 3.552v-9.696h-4.944a1.623 1.623 0 0 1-.121-.004q-1.319-.099-1.319-2.396v-1.392a7.633 7.633 0 0 1 .001-.148q.043-2.211 1.388-2.251a1.683 1.683 0 0 1 .051-.001h10.272a3.099 3.099 0 0 1 .136.003q1.622.071 1.64 1.876a4.086 4.086 0 0 1 0 .041v14.304a2.075 2.075 0 0 1-.009.192q-.046.493-.331.907a2.098 2.098 0 0 1-.02.029q-.33.461-1.001.822a4.859 4.859 0 0 1-.127.066q-.96.528-2.592.936-1.577.394-3.401.632a36.325 36.325 0 0 1-.127.016q-1.896.24-3.72.24-7.11 0-10.955-3.265a10.965 10.965 0 0 1-.973-.935q-3.835-4.169-3.864-12.948a40.579 40.579 0 0 1 0-.132 35.974 35.974 0 0 1 .002-.4q.093-8.292 4.03-12.44 3.955-4.166 11.696-4.246a29.47 29.47 0 0 1 .304-.002 22.513 22.513 0 0 1 .435.004q.773.015 1.578.083a26.511 26.511 0 0 1 .363.033 24.686 24.686 0 0 1 1.218.15 24.502 24.502 0 0 1 1.206.21q1.2.24 2.232.576a12.113 12.113 0 0 1 .191.064q.909.313 1.561.704a5.209 5.209 0 0 1 .136.082q.481.301.776.638a1.714 1.714 0 0 1 .078.095q.129.172.194.353a1.087 1.087 0 0 1 .064.368 1.886 1.886 0 0 1-.002.092q-.023.458-.262 1.132a8.808 8.808 0 0 1-.169.44q-.157.376-.351.746a9.821 9.821 0 0 1-.152.278 7.278 7.278 0 0 1-.103.176q-.365.604-.785 1.024a2.828 2.828 0 0 1-.075.072q-.439.408-.837.408-.576 0-1.248-.216-.614-.197-1.387-.434a155.504 155.504 0 0 0-.149-.046 13.763 13.763 0 0 0-.164-.049q-.736-.215-1.652-.397a26.554 26.554 0 0 0-.176-.034 9.405 9.405 0 0 0-.143-.026q-1.007-.177-2.326-.189a21.292 21.292 0 0 0-.195-.001q-3.994 0-6.035 2.403a6.643 6.643 0 0 0-.229.285 7.089 7.089 0 0 0-.187.258q-1.805 2.614-1.852 7.585a28.298 28.298 0 0 0-.001.269q0 4.022.886 6.412a9.188 9.188 0 0 0 .026.068 9.596 9.596 0 0 0 .088.222q.91 2.226 2.648 3.21a6.65 6.65 0 0 0 .335.177q1.702.839 4.132.855a14.391 14.391 0 0 0 .093 0 17.272 17.272 0 0 0 .625-.011q.724-.026 1.432-.114a16.255 16.255 0 0 0 .487-.067q1.223-.188 2.284-.514a13.676 13.676 0 0 0 .044-.014 13.624 13.624 0 0 0 .133-.042q.898-.29 1.463-.614a4.082 4.082 0 0 0 .108-.064zm140.304 0L294.32 56.4v-9.696h-4.944a1.623 1.623 0 0 1-.121-.004q-1.319-.099-1.319-2.396v-1.392a7.633 7.633 0 0 1 .001-.148q.043-2.211 1.388-2.251a1.683 1.683 0 0 1 .051-.001h10.272a3.099 3.099 0 0 1 .136.003q1.622.071 1.64 1.876a4.086 4.086 0 0 1 0 .041v14.304a2.075 2.075 0 0 1-.009.192q-.046.493-.331.907a2.098 2.098 0 0 1-.02.029q-.33.461-1.001.822a4.859 4.859 0 0 1-.127.066q-.96.528-2.592.936-1.577.394-3.401.632a36.325 36.325 0 0 1-.127.016q-1.896.24-3.72.24-7.11 0-10.955-3.265a10.965 10.965 0 0 1-.973-.935q-3.835-4.169-3.864-12.948a40.579 40.579 0 0 1 0-.132 35.974 35.974 0 0 1 .002-.4q.093-8.292 4.03-12.44 3.955-4.166 11.696-4.246a29.47 29.47 0 0 1 .304-.002 22.513 22.513 0 0 1 .435.004q.773.015 1.578.083a26.511 26.511 0 0 1 .363.033 24.686 24.686 0 0 1 1.218.15 24.502 24.502 0 0 1 1.206.21q1.2.24 2.232.576a12.113 12.113 0 0 1 .191.064q.909.313 1.561.704a5.209 5.209 0 0 1 .136.082q.481.301.776.638a1.714 1.714 0 0 1 .078.095q.129.172.194.353a1.087 1.087 0 0 1 .064.368 1.886 1.886 0 0 1-.002.092q-.023.458-.262 1.132a8.808 8.808 0 0 1-.169.44q-.157.376-.351.746a9.821 9.821 0 0 1-.152.278 7.278 7.278 0 0 1-.103.176q-.365.604-.785 1.024a2.828 2.828 0 0 1-.075.072q-.439.408-.837.408-.576 0-1.248-.216-.614-.197-1.387-.434a155.504 155.504 0 0 0-.149-.046 13.763 13.763 0 0 0-.164-.049q-.736-.215-1.652-.397a26.554 26.554 0 0 0-.176-.034 9.405 9.405 0 0 0-.143-.026q-1.007-.177-2.326-.189a21.292 21.292 0 0 0-.195-.001q-3.994 0-6.035 2.403a6.643 6.643 0 0 0-.229.285 7.089 7.089 0 0 0-.187.258q-1.805 2.614-1.852 7.585a28.298 28.298 0 0 0-.001.269q0 4.022.886 6.412a9.188 9.188 0 0 0 .026.068 9.596 9.596 0 0 0 .088.222q.91 2.226 2.648 3.21a6.65 6.65 0 0 0 .335.177q1.702.839 4.132.855a14.391 14.391 0 0 0 .093 0 17.272 17.272 0 0 0 .625-.011q.724-.026 1.432-.114a16.255 16.255 0 0 0 .487-.067q1.223-.188 2.284-.514a13.676 13.676 0 0 0 .044-.014 13.624 13.624 0 0 0 .133-.042q.898-.29 1.463-.614a4.082 4.082 0 0 0 .108-.064zm-38.112 7.44h-2.496q-1.105 0-1.762-.224a2.536 2.536 0 0 1-.11-.04 2.105 2.105 0 0 1-.117-.05q-.522-.242-.713-.7a1.296 1.296 0 0 1-.034-.09l-10.56-30.768q-.048-.24-.096-.456a2.205 2.205 0 0 1-.023-.12q-.025-.15-.025-.288a.898.898 0 0 1 .007-.11q.055-.445.566-.681a1.745 1.745 0 0 1 .003-.001q.549-.252 1.709-.263a11.362 11.362 0 0 1 .115-.001h2.256q1.056 0 1.776.216a2.139 2.139 0 0 1 .109.036q.626.225.803.756l7.344 25.296h.192l7.344-25.296a1.306 1.306 0 0 1 .069-.158q.213-.407.699-.61a2.464 2.464 0 0 1 .139-.053q.487-.169 1.157-.185a5.963 5.963 0 0 1 .144-.002h2.064a17.082 17.082 0 0 1 .165.001q1.326.013 1.986.234a2.199 2.199 0 0 1 .081.029 2.092 2.092 0 0 1 .084.034q.612.263.612.758a1.632 1.632 0 0 1-.005.122q-.009.118-.034.244a2.3 2.3 0 0 1-.009.042q-.048.216-.144.456l-10.56 30.768a1.27 1.27 0 0 1-.072.172q-.225.445-.792.668a2.534 2.534 0 0 1-.108.04q-.658.224-1.764.224zm-28.09.287q-2.22-.021-3.998-.359a23.065 23.065 0 0 1-.235-.046q-1.7-.341-2.94-.862a10.385 10.385 0 0 1-.065-.028 28.646 28.646 0 0 1-.166-.072q-1.232-.537-2.042-1.032-.628-.404-1.047-.787a4.945 4.945 0 0 1-.057-.053 1.591 1.591 0 0 1-.098-.101q-.304-.343-.331-.794a1.487 1.487 0 0 1-.003-.089 4.171 4.171 0 0 1 .003-.146q.018-.523.165-1.174a8.063 8.063 0 0 1 .171-.635q.131-.418.309-.829.312-.72.672-1.2a2.18 2.18 0 0 1 .056-.072q.261-.319.535-.389a.62.62 0 0 1 .153-.019q.432 0 1.704.6t3.024 1.2q1.585.543 3.307.595a12.139 12.139 0 0 0 .365.005 11.148 11.148 0 0 0 .172-.001q1.276-.02 2.108-.335a3.376 3.376 0 0 0 .176-.072q.749-.333 1.158-.968a2.546 2.546 0 0 0 .01-.016 2.526 2.526 0 0 0 .13-.231q.296-.598.323-1.423a5.133 5.133 0 0 0 .003-.17 3.941 3.941 0 0 0-.004-.178q-.047-1.034-.644-1.742-.648-.768-1.704-1.368a14.162 14.162 0 0 0-.251-.139q-.866-.469-1.899-.877a21.296 21.296 0 0 0-.226-.088 39.066 39.066 0 0 1-.496-.193q-1.076-.428-2.168-.935a17.611 17.611 0 0 1-1.671-.883 17.855 17.855 0 0 1-.729-.461 9.655 9.655 0 0 1-.699-.513q-.745-.6-1.389-1.359a6.852 6.852 0 0 1-.255-.32q-.755-1.007-1.209-2.368-.528-1.584-.528-3.744a13.316 13.316 0 0 1 .003-.301q.052-2.283.893-3.969a7.244 7.244 0 0 1 .088-.17 9.556 9.556 0 0 1 .19-.34q.886-1.512 2.237-2.523a8.425 8.425 0 0 1 .189-.137 11.204 11.204 0 0 1 1.334-.808q.96-.495 2.031-.815a12.714 12.714 0 0 1 .283-.081 15.537 15.537 0 0 1 1.142-.267q1.199-.233 2.432-.275a16.025 16.025 0 0 1 .554-.01 19.41 19.41 0 0 1 .573.008q1.017.03 2.002.168a17.802 17.802 0 0 1 .425.064q1.464.24 2.664.648 1.2.408 1.92.936.45.286.761.608a3.077 3.077 0 0 1 .103.112 1.918 1.918 0 0 1 .069.084q.201.257.251.515a.892.892 0 0 1 .016.169 2.962 2.962 0 0 1-.001.092q-.015.458-.167 1.132-.168.744-.432 1.464a5.767 5.767 0 0 1-.066.171q-.244.607-.582 1.029a2.084 2.084 0 0 1-.066.079q-.247.279-.514.364a.774.774 0 0 1-.236.037 1.983 1.983 0 0 1-.092-.002q-.557-.026-1.42-.358a17.171 17.171 0 0 0-.118-.045q-.897-.337-2.09-.675-1.272-.36-2.856-.36a10.433 10.433 0 0 0-.166.001q-1.111.018-1.914.275a4.244 4.244 0 0 0-.176.06q-.912.336-1.368.984-.455.646-.456 1.65a4.329 4.329 0 0 0 0 .006 3.847 3.847 0 0 0 .004.185q.052 1.077.716 1.807.683.752 1.82 1.287a8.293 8.293 0 0 0 .124.057 1075.979 1075.979 0 0 0 .289.13q1.098.495 2.327 1.046 1.415.593 2.873 1.317a54.655 54.655 0 0 1 .151.075q1.32.66 2.463 1.586a13.673 13.673 0 0 1 .369.31q1.296 1.128 2.088 2.832a6.731 6.731 0 0 1 .096.216q.661 1.565.694 3.797a15.97 15.97 0 0 1 .002.235 16.715 16.715 0 0 1-.003.307q-.048 2.633-.933 4.493a10.154 10.154 0 0 1-.15.303q-.811 1.568-2.059 2.617a7.848 7.848 0 0 1-.311.248q-1.383 1.048-3.021 1.601a11.012 11.012 0 0 1-.483.151q-1.222.351-2.464.479a13.911 13.911 0 0 1-1.424.073 31.381 31.381 0 0 1-.298-.001zm-21.926-24.383V25.584q0-.768.696-1.176a1.781 1.781 0 0 1 .09-.049q.668-.342 2.003-.358a11.137 11.137 0 0 1 .139-.001h1.344q1.522 0 2.219.4a1.693 1.693 0 0 1 .013.008 1.851 1.851 0 0 1 .105.066q.591.402.591 1.11V51.84a71.89 71.89 0 0 0 0 .228q.007 1.952.12 3.132.113 1.179.227 1.908a14.939 14.939 0 0 0 .013.084q.12.744.12 1.272a.896.896 0 0 1-.012.145q-.076.466-.655.776a2.351 2.351 0 0 1-.029.015q-.653.338-1.559.506a8.189 8.189 0 0 1-.121.022q-.984.168-1.872.24a48.483 48.483 0 0 1-.109.009q-.756.059-1.119.063a4.558 4.558 0 0 1-.044 0 2.342 2.342 0 0 1-.105-.002q-.467-.021-.725-.233a.791.791 0 0 1-.034-.029.837.837 0 0 1-.058-.058q-.247-.276-.418-.911a5.192 5.192 0 0 1-.004-.015q-.183-.685-.452-1.935a99.166 99.166 0 0 1-.028-.129q-.499.998-1.362 1.781a6.8 6.8 0 0 1-.102.091 6.789 6.789 0 0 1-.519.41q-.621.442-1.357.76a8.208 8.208 0 0 1-.308.126 6.604 6.604 0 0 1-.387.135q-.978.308-2.122.341a9.586 9.586 0 0 1-.275.004 8.835 8.835 0 0 1-.362-.007q-2.367-.097-4.259-1.473a8.307 8.307 0 0 1-.011-.008q-2.04-1.488-3.216-4.392-1.159-2.862-1.176-6.959a29.452 29.452 0 0 1 0-.121 25.337 25.337 0 0 1 .003-.367q.05-3.448 1.044-6.065a13.076 13.076 0 0 1 .153-.384 12.826 12.826 0 0 1 .144-.333q.862-1.913 2.226-3.235a9.271 9.271 0 0 1 1.11-.92 8.326 8.326 0 0 1 1.426-.809q1.802-.799 4.07-.799 1.824 0 3.024.48a14.532 14.532 0 0 1 .148.06q.999.413 1.648.86a5.199 5.199 0 0 1 .124.088zm0 15.744V41.232a3.757 3.757 0 0 0-.102-.063q-.469-.277-1.174-.521a10.559 10.559 0 0 0-.116-.04 4.72 4.72 0 0 0-.206-.064q-.715-.202-1.611-.222a8.919 8.919 0 0 0-.199-.002q-2.127 0-3.229 1.714a4.765 4.765 0 0 0-.083.134q-1.091 1.826-1.104 5.362a23.262 23.262 0 0 0 0 .086 25.006 25.006 0 0 0 .001.217q.029 3.321.946 5.086a5.238 5.238 0 0 0 .013.025 4.808 4.808 0 0 0 .092.167q.915 1.582 2.624 1.654a3.915 3.915 0 0 0 .164.003q1.294 0 2.235-.747a3.659 3.659 0 0 0 .141-.117 8.052 8.052 0 0 0 .299-.276q.381-.371.702-.782a7.404 7.404 0 0 0 .607-.91zm-31.122 8.637q-5.451-.102-8.334-3.357-2.91-3.286-2.975-9.325a25.768 25.768 0 0 1-.001-.275 26.024 26.024 0 0 1 .003-.366q.077-5.531 2.523-8.694a9.514 9.514 0 0 1 .45-.54 9.206 9.206 0 0 1 .457-.473q2.861-2.76 7.938-2.837a19.341 19.341 0 0 1 .293-.002q5.401 0 8.335 2.961a9.136 9.136 0 0 1 .329.351q2.952 3.312 2.952 9.6a25.836 25.836 0 0 1-.003.375q-.081 5.584-2.593 8.796a9.772 9.772 0 0 1-.356.429 9.201 9.201 0 0 1-.38.407q-2.848 2.871-7.989 2.951a19.059 19.059 0 0 1-.295.002 18.991 18.991 0 0 1-.354-.003zm.354-5.613a5.236 5.236 0 0 0 .209-.004q2.056-.082 3.042-1.802a4.565 4.565 0 0 0 .037-.066 5.439 5.439 0 0 0 .094-.179q.938-1.862.938-5.293 0-3.438-.941-5.278a5.277 5.277 0 0 0-.091-.17q-.99-1.773-3.107-1.845a5.331 5.331 0 0 0-.181-.003 5.308 5.308 0 0 0-.209.004q-2.096.083-3.103 1.844a5.245 5.245 0 0 0-.097.177q-.929 1.783-.958 5.061a24.017 24.017 0 0 0-.001.21q0 3.6 1.056 5.472a4.547 4.547 0 0 0 .102.171q1.042 1.673 3.138 1.701a5.371 5.371 0 0 0 .072 0zm-2.896 33.152v-1.92h5.928v8.4a18.003 18.003 0 0 1-.654.201q-1.07.306-2.154.471a15.466 15.466 0 0 1-.179.026q-1.261.178-2.817.189a29.42 29.42 0 0 1-.22.001 12.952 12.952 0 0 1-.289-.003q-2.475-.055-4.199-1.065a7.124 7.124 0 0 1-.361-.226q-1.45-.97-2.289-2.577a7.991 7.991 0 0 1-.122-.245q-.948-1.98-.948-4.692 0-2.688 1.056-4.656a7.961 7.961 0 0 1 .206-.361q.991-1.635 2.676-2.612a8.345 8.345 0 0 1 .154-.087 7.654 7.654 0 0 1 .411-.211q1.837-.873 4.332-.881a14.37 14.37 0 0 1 .045 0q1.44 0 2.724.264a13.61 13.61 0 0 1 .318.069q1.104.255 2.07.675l-.816 1.872q-.878-.393-1.966-.674a15.906 15.906 0 0 0-.086-.022q-1.068-.27-2.209-.287a10.338 10.338 0 0 0-.155-.001q-3.072 0-4.788 1.848-1.652 1.779-1.714 4.826a11.772 11.772 0 0 0-.002.238 12.344 12.344 0 0 0 .003.253q.038 1.885.657 3.359.658 1.567 2.067 2.442a5.623 5.623 0 0 0 .009.006 4.687 4.687 0 0 0 .25.144q1.352.726 3.434.732a12.053 12.053 0 0 0 .036 0q1.053 0 1.814-.105a7.893 7.893 0 0 0 .106-.015q.792-.12 1.44-.288v-5.088h-3.768zM139 94.664V92.6a7.835 7.835 0 0 0 .11.048q.834.356 2.038.648 1.251.304 2.582.312a11.963 11.963 0 0 0 .07 0 9.571 9.571 0 0 0 .178-.002q1.788-.033 2.714-.742a2.846 2.846 0 0 0 .146-.119q.788-.691.824-1.789a3.242 3.242 0 0 0 .002-.108q0-.679-.235-1.185a2.116 2.116 0 0 0-.125-.231 2.014 2.014 0 0 0-.085-.125q-.351-.478-1.068-.896a6.017 6.017 0 0 0-.083-.047q-.876-.492-2.436-1.044a14.892 14.892 0 0 1-.236-.088q-1.908-.728-2.955-1.747a5.168 5.168 0 0 1-.109-.109q-1.096-1.131-1.116-3.072a7.029 7.029 0 0 1 0-.072q0-1 .372-1.788a3.539 3.539 0 0 1 .324-.552 4.087 4.087 0 0 1 .535-.609q.501-.468 1.177-.791a5.639 5.639 0 0 1 .22-.1q1.236-.528 2.844-.528a14.832 14.832 0 0 1 .263.002q1.214.022 2.245.244a9.438 9.438 0 0 1 .084.018 13.39 13.39 0 0 1 .29.068q.857.213 1.594.519a9.386 9.386 0 0 1 .252.109l-.672 1.848a11.138 11.138 0 0 0-.281-.117q-.656-.262-1.391-.463a14.689 14.689 0 0 0-.26-.068 8.47 8.47 0 0 0-.652-.138q-.67-.114-1.372-.125a9.572 9.572 0 0 0-.148-.001q-1.515 0-2.327.607a2.228 2.228 0 0 0-.097.077 2.514 2.514 0 0 0-.144.131q-.645.632-.671 1.601a3.054 3.054 0 0 0-.001.08 3.958 3.958 0 0 0 .003.159q.031.759.357 1.281.36.576 1.176 1.032a8.452 8.452 0 0 0 .104.057q.755.408 1.961.873a31.438 31.438 0 0 0 .143.054 21.135 21.135 0 0 1 .187.069q1.39.523 2.369 1.119.984.6 1.521 1.424a3.863 3.863 0 0 1 .063.1q.54.888.54 2.232 0 2.225-1.578 3.491a4.767 4.767 0 0 1-.078.061 5.172 5.172 0 0 1-.376.263q-1.587 1.009-4.088 1.009-1.44 0-2.664-.216a12.706 12.706 0 0 1-.151-.028q-1.062-.2-1.804-.533a5.123 5.123 0 0 1-.085-.039zm24.072-16.56h2.28l-6.12 17.136h-2.16l-6.12-17.136h2.256l3.864 10.992q.346.953.595 1.798a23.917 23.917 0 0 1 .053.182 26.125 26.125 0 0 1 .065.23q.208.754.35 1.451a19.064 19.064 0 0 1 .017.083q.168-.84.432-1.776a25.582 25.582 0 0 1 .068-.235q.244-.835.58-1.781l3.84-10.944zm49.896 5.928h.144a17.351 17.351 0 0 0-.005-.061q-.023-.284-.071-.777a108.689 108.689 0 0 0-.008-.086q-.055-.563-.06-.912a4.693 4.693 0 0 1 0-.06V77h2.112v18.24h-1.704l-.312-1.728h-.096a4.469 4.469 0 0 1-.27.346q-.462.533-1.111.95a6.077 6.077 0 0 1-.155.096 3.315 3.315 0 0 1-.217.119q-.865.435-2.129.456a7.757 7.757 0 0 1-.126.001 6.717 6.717 0 0 1-.223-.004q-2.245-.074-3.617-1.664-1.44-1.668-1.44-4.98a14.766 14.766 0 0 1 .001-.205q.041-2.928 1.252-4.551a4.682 4.682 0 0 1 .199-.248 5.313 5.313 0 0 1 .185-.205q1.417-1.487 3.667-1.487a7.754 7.754 0 0 1 .184.002q1.363.033 2.252.55a6.106 6.106 0 0 1 .231.141q.792.51 1.317 1.203zm-11.832 3.912v1.272h-8.808a8.858 8.858 0 0 0 .007.202q.082 1.826.909 2.888a3.38 3.38 0 0 0 .2.234 3.399 3.399 0 0 0 .28.267q.971.825 2.525.87a6.264 6.264 0 0 0 .183.003 12.73 12.73 0 0 0 .227-.002q1.082-.019 1.938-.224a6.881 6.881 0 0 0 .007-.002 10.585 10.585 0 0 0 .298-.076q.765-.208 1.568-.546a14.562 14.562 0 0 0 .09-.038v1.848a11.374 11.374 0 0 1-.246.104q-.777.32-1.54.497a8.916 8.916 0 0 1-.158.035 7.233 7.233 0 0 1-.121.025q-.921.179-2.159.179a8.708 8.708 0 0 1-.282-.005q-1.517-.049-2.733-.632a5.926 5.926 0 0 1-.213-.107 5.261 5.261 0 0 1-.336-.194q-1.127-.708-1.804-1.944a6.181 6.181 0 0 1-.044-.082 5.707 5.707 0 0 1-.15-.307q-.59-1.299-.628-3.065a11.396 11.396 0 0 1-.002-.24 12.27 12.27 0 0 1 .003-.262q.039-1.827.627-3.189a6.304 6.304 0 0 1 .078-.173 6.646 6.646 0 0 1 .114-.232q.694-1.344 1.878-2.096a5.021 5.021 0 0 1 1-.489q.841-.302 1.827-.325a6.993 6.993 0 0 1 .161-.002 7.42 7.42 0 0 1 .205.003q1.479.041 2.571.677a4.499 4.499 0 0 1 .068.04q1.188.72 1.824 2.028a5.619 5.619 0 0 1 .149.334q.445 1.09.483 2.465a9.383 9.383 0 0 1 .004.261zm30.312 5.544v1.608a1.685 1.685 0 0 1-.066.031q-.328.147-.894.245a7.932 7.932 0 0 1-.232.037q-.377.053-.736.067a6.302 6.302 0 0 1-.232.004 5.676 5.676 0 0 1-.25-.005q-.649-.029-1.231-.208a4.481 4.481 0 0 1-.379-.135q-.817-.334-1.336-1.142a3.699 3.699 0 0 1-.044-.07 2.629 2.629 0 0 1-.087-.154q-.437-.836-.441-2.244a9.219 9.219 0 0 1 0-.026v-7.488h-1.824V83l1.848-.84.84-2.736h1.248v2.952h3.72v1.632h-3.72v7.44a4.67 4.67 0 0 0 .002.145q.033 1.066.562 1.595.543.543 1.387.563a2.741 2.741 0 0 0 .065.001 5.622 5.622 0 0 0 .302-.008q.257-.014.52-.051a6.501 6.501 0 0 0 .162-.025 11.27 11.27 0 0 0 .115-.02q.426-.075.701-.16zm24.6-11.208-.264 1.944a5.87 5.87 0 0 0-.139-.03q-.254-.052-.545-.09-.372-.048-.708-.048a3.492 3.492 0 0 0-.32.015q-.806.074-1.528.525a3.705 3.705 0 0 0-.734.601q-.372.395-.646.911-.516.972-.516 2.268v6.864h-2.112V82.376h1.728l.24 2.352h.096a6.489 6.489 0 0 1 .329-.502q.537-.743 1.279-1.322.922-.719 2.159-.765a4.588 4.588 0 0 1 .169-.003 7.544 7.544 0 0 1 .137.001q.302.006.643.035a7.522 7.522 0 0 1 .103.01q.356.035.629.098zm-10.85 6.702a12.316 12.316 0 0 0 .002-.198 12.045 12.045 0 0 0 0-.038q-.006-1.912-.621-3.291a5.773 5.773 0 0 0-.135-.283 6.878 6.878 0 0 0-.004-.008q-.756-1.47-2.084-2.248a5.38 5.38 0 0 0-.536-.275q-1.138-.505-2.548-.505-2.544 0-4.11 1.469a5.395 5.395 0 0 0-.258.259 5.131 5.131 0 0 0-.252.292q-1.31 1.639-1.354 4.43a12.403 12.403 0 0 0-.002.198 11.59 11.59 0 0 0 .002.235q.036 1.771.618 3.09a5.958 5.958 0 0 0 .148.311 6.719 6.719 0 0 0 .084.159q.756 1.383 2.016 2.121 1.218.713 2.746.774a7.243 7.243 0 0 0 .29.006q2.547 0 4.123-1.492a5.491 5.491 0 0 0 .257-.26q1.569-1.697 1.618-4.746zm-26.038-6.606h2.112V95.24h-2.112V82.376zm23.856 6.408a11.219 11.219 90 0 1-.002.212q-.038 2.014-.806 3.258a4.108 4.108 90 0 1-.092.142q-.873 1.292-2.752 1.331a5.677 5.677 90 0 1-.116.001 5.467 5.467 90 0 1-.18-.003q-1.807-.059-2.676-1.329-.912-1.332-.912-3.612a11.058 11.058 90 0 1 .002-.212q.041-2.129.91-3.364a3.026 3.026 90 0 1 .149-.195q.867-1.041 2.537-1.098a5.743 5.743 90 0 1 .194-.003 5.752 5.752 90 0 1 .182.003q1.771.056 2.62 1.217a3.002 3.002 90 0 1 .054.076 3.937 3.937 90 0 1 .146.23q.736 1.252.742 3.314a11.66 11.66 90 0 1 0 .032zm-30.024.456v-.384a14.075 14.075 0 0 0-.002-.223q-.034-2.146-.73-3.36a3.69 3.69 0 0 0-.06-.101 2.426 2.426 0 0 0-.168-.239q-.833-1.045-2.76-1.045-1.7 0-2.552 1.35a3.588 3.588 0 0 0-.004.006 4.338 4.338 0 0 0-.128.218q-.689 1.252-.722 3.214a11.874 11.874 0 0 0-.002.204 12.074 12.074 0 0 0 .002.214q.038 2.15.85 3.362a3.145 3.145 0 0 0 .124.173q.833 1.077 2.393 1.099a4.629 4.629 0 0 0 .063 0 7.152 7.152 0 0 0 .189-.002q1.89-.05 2.679-1.114.795-1.072.827-3.194a11.928 11.928 0 0 0 .001-.178zm-20.616-1.704h6.552a7.062 7.062 0 0 0-.006-.202q-.064-1.494-.762-2.45a2.373 2.373 0 0 0-.16-.197q-.747-.823-2.192-.823a4.524 4.524 0 0 0-.187.004q-1.37.056-2.189.955a3.027 3.027 0 0 0-.012.013q-.827.918-1.023 2.509a7.499 7.499 0 0 0-.021.191zm27.864-9.984q.48 0 .852.324a.933.933 0 0 1 .171.198q.201.31.201.822a2.27 2.27 0 0 1-.003.118q-.03.584-.369.89a1.474 1.474 0 0 1-.107.088q-.274.204-.602.24a1.309 1.309 0 0 1-.143.008q-.528 0-.888-.336-.328-.306-.357-.891a2.347 2.347 0 0 1-.003-.117 2.528 2.528 0 0 1 .002-.106q.026-.615.358-.914.36-.324.888-.324z" fill="#414159" stroke="#414159" stroke-linejoin="round"/></svg>
