<svg width="320" height="128" viewBox="0 0 320 128" xmlns="http://www.w3.org/2000/svg"><linearGradient id="a" x2="1"><stop stop-color="#3d85cc" offset=".2"/><stop stop-color="#3060bf" offset="1"/></linearGradient><path d="M114 83.5c0 12.5-3 20.5-5.5 24.5s-9 13.5-25 17-30 3-45-4S13 101 17 79l9-8 28 39z" fill="#4c90bf"/><path d="M42 87.8c3 4.7 6.5 8.2 14 10.2 15 3 23-1.5 27-7.5 1.5-2.5 1.25-8 .5-10L113 70c1 4.5 1 9 1 13.5-11.5 27.5-37 31.5-50 31-25.5-2.5-32-14-35.5-20.5C25 86 26 77.5 26 72z" fill="url(#a)"/><path d="M17 79c3.5-15 12-23 18-27 2-1-3 18 7 35.8C32 83.5 27 77 26 73c-2 3-6 5-9 6" fill="#dde"/><path d="M65.5 78c-3-2-7.5-6.5-5-7.5C75.5 66 82 50 83 45.5c1-1 8 8.5 9 13 3-2.5 7.5-7.5 8.5-13 1-1 10 12 12.5 24.5-9 3.5-13.5 13.5-15 12z" fill="#62bcd9"/><path d="M95 85c-2-3-5.5-3.5-7.5-3.5s-3.5 0-8.5.5-12.5-2-14.7-4.84C64 76.8 67 74 72 74.5c10 1 18.5.5 21.5-3 1-1 8.5 6.5 7.5 8.31-3 3.8-5 6.8-6 5.3z" fill="#a1dae6"/><path d="M88.5 67.5s-5 4-9-1" fill="none" stroke="#3461ac" stroke-width="2.5" stroke-linecap="round"/><path d="M26.5 37.5C24.5 46.5 24 50 22 50s-4.5-2-4.5-8 4-21.5 18.5-32.5S74-1 88 7c3 2 6 4 7 6s-3.5 5.5-12.5 0h-35zm80-18c2 2 4 5 3 7s-5-2.5-9-4-2-5-.5-6c3-2 5.5 2 6.5 3" fill="#f24949"/><path d="M78 11s5.5 1.5 7.5 4 1.5 7-6 5h-27L33 40s-.5 2-3.5 1.5-3.5-4-3-6S30 27 34 22 53 2 78 11m13 12c-1.5-1 1-3.5 4-1.5s7 5.5 7 7.5-1.5 2.5-3.5 1.5-3-2.5-5.5-2.5-3-1-2.5-2 3.5-1 .5-3" fill="#8ff249"/><path d="M79.5 20c-3.5 2-1.5 3.5-4 5s-4.5 0-9.5-.5C50 23 42 38 40.5 45.5c-.5 4-2.5 1-3.5 0s-2 2-3.5 3-2.5 1-2.5-1.5 3.5-12.5 6-16 12-16.5 28.5-15c6.5 1 10.5 2.5 14 4" fill="#5555f2"/><path d="M154.016 46.704h-5q-1.384 0-1.384-2.4v-1.392q.043-2.4 1.384-2.4h10.327q1.776 0 1.776 1.879v14.345a2 2 0 0 1 -.009.192q-.046.493-.331.907l-.02.029q-.33.461-1.001.822l-.127.066q-.96.528-2.592.936-1.577.394-3.401.632l-.127.016q-1.896.24-3.72.24-7.11 0-10.955-3.265a11 11 0 0 1 -.973-.935q-3.835-4.169-3.864-12.948v-.132l.002-.4q.093-8.292 4.03-12.44 3.955-4.166 11.696-4.246l.304-.002a23 23 0 0 1 .435.004q.773.015 1.578.083l.363.033a25 25 0 0 1 1.218.15 25 25 0 0 1 1.206.21q1.2.24 2.232.576l.191.064q.909.313 1.561.704l.136.082q.481.301.776.638l.078.095q.129.172.194.353a1.1 1.1 0 0 1 .064.368l-.002.092q-.023.458-.262 1.132a9 9 0 0 1 -.169.44q-.157.376-.351.746a10 10 0 0 1 -.152.278l-.103.176q-.365.604-.785 1.024l-.075.072q-.439.408-.837.408-.576 0-1.248-.216-.614-.197-1.387-.434l-.149-.046-.164-.049q-.736-.215-1.652-.397l-.176-.034-.143-.026q-1.007-.177-2.326-.189l-.195-.001q-3.994 0-6.035 2.403a7 7 0 0 0 -.229.285 7 7 0 0 0 -.187.258q-1.805 2.614-1.852 7.585l-.001.269q0 4.022.886 6.412l.026.068.088.222q.91 2.226 2.648 3.21a7 7 0 0 0 .335.177q1.702.839 4.132.855h.093a17 17 0 0 0 .625-.011q.724-.026 1.432-.114a16 16 0 0 0 .487-.067q1.223-.188 1.68-.396zm22.406 13.869q-5.451-.102-8.334-3.357-2.91-3.286-2.975-9.325l-.001-.275.003-.366q.077-5.531 2.523-8.694a10 10 0 0 1 .45-.54 9 9 0 0 1 .457-.473q2.861-2.76 7.938-2.837l.293-.002q5.401 0 8.335 2.961a9 9 0 0 1 .329.351q2.952 3.312 2.952 9.6l-.003.375q-.081 5.584-2.593 8.796a10 10 0 0 1 -.356.429 9 9 0 0 1 -.38.407q-2.848 2.871-7.989 2.951l-.295.002zm.354-5.613a5 5 0 0 0 .209-.004q2.056-.082 3.042-1.802l.037-.066.094-.179q.938-1.862.938-5.293 0-3.438-.941-5.278l-.091-.17q-.99-1.773-3.107-1.845l-.181-.003a5 5 0 0 0 -.209.004q-2.096.083-3.103 1.844l-.097.177q-.929 1.783-.958 5.061l-.001.21q0 3.6 1.056 5.472l.102.171q1.042 1.673 3.138 1.701zm30.768-29.376q0-1.584 2.789-1.584h1.622q2.789 0 2.789 1.584v26.484q.007 1.952.12 3.132.113 1.179.227 1.908l.013.084q.12.744.12 1.272a1 1 0 0 1 -.012.145q-.076.466-.655.776l-.029.015q-.653.338-1.559.506l-.121.022q-.984.168-1.872.24l-.109.009q-.756.059-1.119.063h-.044l-.105-.002q-.467-.021-.725-.233l-.034-.029-.058-.058q-.247-.276-.418-.911l-.004-.015q-.183-.685-.452-1.935l-.028-.129q-.499.998-1.362 1.781l-.102.091a7 7 0 0 1 -.519.41q-.621.442-1.357.76a8 8 0 0 1 -.308.126 7 7 0 0 1 -.387.135q-.978.308-2.122.341l-.275.004a9 9 0 0 1 -.362-.007q-2.367-.097-4.259-1.473l-.011-.008q-2.04-1.488-3.216-4.392-1.159-2.862-1.176-6.959v-.121l.003-.367q.05-3.448 1.044-6.065a13 13 0 0 1 .153-.384 13 13 0 0 1 .144-.333q.862-1.913 2.226-3.235a9 9 0 0 1 1.11-.92 8.3 8.3 0 0 1 1.426-.809q1.802-.799 4.07-.799 1.824 0 3.024.48l.148.06q.999.413 1.648.86l.124.088zm0 26.352V41.232l-.102-.063q-.469-.277-1.174-.521l-.116-.04a5 5 0 0 0 -.206-.064q-.715-.202-1.611-.222l-.199-.002q-2.127 0-3.229 1.714l-.083.134q-1.091 1.826-1.104 5.362v.086l.001.217q.029 3.321.946 5.086l.013.025.092.167q.915 1.582 2.624 1.654l.164.003q1.294 0 2.235-.747a4 4 0 0 0 .141-.117 8 8 0 0 0 .299-.276q.381-.371.702-.782a7.4 7.4 0 0 0 .607-.91zm22.926 8.639q-2.22-.021-3.998-.359l-.235-.046q-1.7-.341-2.94-.862l-.065-.028-.166-.072q-1.232-.537-2.042-1.032-.628-.404-1.047-.787l-.057-.053a2 2 0 0 1 -.098-.101q-.304-.343-.331-.794l-.003-.089.003-.146q.018-.523.165-1.174a8 8 0 0 1 .171-.635q.131-.418.309-.829.312-.72.672-1.2l.056-.072q.261-.319.535-.389a.6.6 0 0 1 .153-.019q.432 0 1.704.6t3.024 1.2q1.585.543 3.307.595a12 12 0 0 0 .365.005l.172-.001q1.276-.02 2.108-.335a3 3 0 0 0 .176-.072q.749-.333 1.158-.968l.01-.016a3 3 0 0 0 .13-.231q.296-.598.323-1.423l.003-.17-.004-.178q-.047-1.034-.644-1.742-.648-.768-1.704-1.368l-.251-.139q-.866-.469-1.899-.877l-.226-.088-.496-.193q-1.076-.428-2.168-.935a18 18 0 0 1 -1.671-.883 18 18 0 0 1 -.729-.461 10 10 0 0 1 -.699-.513q-.745-.6-1.389-1.359a7 7 0 0 1 -.255-.32q-.755-1.007-1.209-2.368-.528-1.584-.528-3.744l.003-.301q.052-2.283.893-3.969l.088-.17a10 10 0 0 1 .19-.34q.886-1.512 2.237-2.523l.189-.137a11 11 0 0 1 1.334-.808q.96-.495 2.031-.815l.283-.081a16 16 0 0 1 1.142-.267q1.199-.233 2.432-.275a16 16 0 0 1 .554-.01 19 19 0 0 1 .573.008q1.017.03 2.002.168a18 18 0 0 1 .425.064q1.464.24 2.664.648t1.92.936q.45.286.761.608l.103.112.069.084q.201.257.251.515a1 1 0 0 1 .016.169l-.001.092q-.015.458-.167 1.132-.168.744-.432 1.464l-.066.171q-.244.607-.582 1.029l-.066.079q-.247.279-.514.364a.8.8 0 0 1 -.236.037l-.092-.002q-.557-.026-1.42-.358l-.118-.045q-.897-.337-2.09-.675-1.272-.36-2.856-.36l-.166.001q-1.111.018-1.914.275a4 4 0 0 0 -.176.06q-.912.336-1.368.984-.455.646-.456 1.65v.006a4 4 0 0 0 .004.185q.052 1.077.716 1.807.683.752 1.82 1.287l.124.057.289.13q1.098.495 2.327 1.046 1.415.593 2.873 1.317l.151.075q1.32.66 2.463 1.586a14 14 0 0 1 .369.31q1.296 1.128 2.088 2.832l.096.216q.661 1.565.694 3.797l.002.235-.003.307q-.048 2.633-.933 4.493a10 10 0 0 1 -.15.303q-.811 1.568-2.059 2.617a8 8 0 0 1 -.311.248q-1.383 1.048-3.021 1.601a11 11 0 0 1 -.483.151q-1.222.351-2.464.479a14 14 0 0 1 -1.424.073zm26.594-.287q-1.105 0-1.762-.224l-.11-.04-.117-.05q-.522-.242-.713-.7l-.034-.09-10.56-30.768q-.048-.24-.096-.456l-.023-.12q-.025-.15-.025-.288a1 1 0 0 1 .007-.11q.055-.445.566-.681l.003-.001q.549-.252 1.709-.263l.115-.001h2.256q1.056 0 1.776.216l.109.036q.626.225.803.756l7.44 25.627 7.44-25.627a1 1 0 0 1 .069-.158q.213-.407.699-.61l.139-.053q.487-.169 1.157-.185l.144-.002h2.064l.165.001q1.326.013 1.986.234l.081.029.084.034q.612.263.612.758l-.005.122q-.009.118-.034.244l-.009.042q-.048.216-.144.456l-10.56 30.768a1 1 0 0 1 -.072.172q-.225.445-.792.668l-.108.04q-.658.224-1.764.224zm37.256-13.584h-5q-1.384 0-1.384-2.4v-1.392q.043-2.4 1.384-2.4h10.327q1.776 0 1.776 1.879v14.345a2 2 0 0 1 -.009.192q-.046.493-.331.907l-.02.029q-.33.461-1.001.822l-.127.066q-.96.528-2.592.936-1.577.394-3.401.632l-.127.016q-1.896.24-3.72.24-7.11 0-10.955-3.265a11 11 0 0 1 -.973-.935q-3.835-4.169-3.864-12.948v-.132l.002-.4q.093-8.292 4.03-12.44 3.955-4.166 11.696-4.246l.304-.002a23 23 0 0 1 .435.004q.773.015 1.578.083l.363.033a25 25 0 0 1 1.218.15 25 25 0 0 1 1.206.21q1.2.24 2.232.576l.191.064q.909.313 1.561.704l.136.082q.481.301.776.638l.078.095q.129.172.194.353a1.1 1.1 0 0 1 .064.368l-.002.092q-.023.458-.262 1.132a9 9 0 0 1 -.169.44q-.157.376-.351.746a10 10 0 0 1 -.152.278l-.103.176q-.365.604-.785 1.024l-.075.072q-.439.408-.837.408-.576 0-1.248-.216-.614-.197-1.387-.434l-.149-.046-.164-.049q-.736-.215-1.652-.397l-.176-.034-.143-.026q-1.007-.177-2.326-.189l-.195-.001q-3.994 0-6.035 2.403a7 7 0 0 0 -.229.285 7 7 0 0 0 -.187.258q-1.805 2.614-1.852 7.585l-.001.269q0 4.022.886 6.412l.026.068.088.222q.91 2.226 2.648 3.21a7 7 0 0 0 .335.177q1.702.839 4.132.855h.093a17 17 0 0 0 .625-.011q.724-.026 1.432-.114a16 16 0 0 0 .487-.067q1.223-.188 1.68-.396zM139 94.664V92.6l.11.048q.834.356 2.038.648 1.251.304 2.582.312h.07l.178-.002q1.788-.033 2.714-.742a3 3 0 0 0 .146-.119q.788-.691.824-1.789l.002-.108q0-.679-.235-1.185a2 2 0 0 0 -.125-.231 2 2 0 0 0 -.085-.125q-.351-.478-1.068-.896l-.083-.047q-.876-.492-2.436-1.044l-.236-.088q-1.908-.728-2.955-1.747l-.109-.109q-1.096-1.131-1.116-3.072v-.072q0-1 .372-1.788a3.5 3.5 0 0 1 .324-.552 4 4 0 0 1 .535-.609q.501-.468 1.177-.791a6 6 0 0 1 .22-.1q1.236-.528 2.844-.528l.263.002q1.214.022 2.245.244l.084.018.29.068q.857.213 1.594.519a9 9 0 0 1 .252.109l-.672 1.848a11 11 0 0 0 -.281-.117q-.656-.262-1.391-.463l-.26-.068a9 9 0 0 0 -.652-.138q-.67-.114-1.372-.125l-.148-.001q-1.515 0-2.327.607l-.097.077a3 3 0 0 0 -.144.131q-.645.632-.671 1.601l-.001.08.003.159q.031.759.357 1.281.36.576 1.176 1.032l.104.057q.755.408 1.961.873l.143.054.187.069q1.39.523 2.369 1.119.984.6 1.521 1.424l.063.1q.54.888.54 2.232 0 2.225-1.578 3.491l-.078.061a5 5 0 0 1 -.376.263q-1.587 1.009-4.088 1.009-1.44 0-2.664-.216l-.151-.028q-1.062-.2-1.804-.533zm25.196-16.56h2.256l-6.12 17.136h-2.16l-6.12-17.136h2.256l4.944 14.064zm11.684 10.008v-1.92h5.928v8.4a18 18 0 0 1 -.654.201q-1.07.306-2.154.471l-.179.026q-1.261.178-2.817.189l-.22.001-.289-.003q-2.475-.055-4.199-1.065a7 7 0 0 1 -.361-.226q-1.45-.97-2.289-2.577a8 8 0 0 1 -.122-.245q-.948-1.98-.948-4.692 0-2.688 1.056-4.656a8 8 0 0 1 .206-.361q.991-1.635 2.676-2.612l.154-.087a8 8 0 0 1 .411-.211q1.837-.873 4.332-.881h.045q1.44 0 2.724.264l.318.069q1.104.255 2.07.675l-.816 1.872q-.878-.393-1.966-.674l-.086-.022q-1.068-.27-2.209-.287l-.155-.001q-3.072 0-4.788 1.848-1.652 1.779-1.714 4.826l-.002.238.003.253q.038 1.885.657 3.359.658 1.567 2.067 2.442l.009.006a5 5 0 0 0 .25.144q1.352.726 3.434.732h.036q1.053 0 1.814-.105l.106-.015q.792-.12 1.44-.288v-5.088zm25.256-.168v1.272h-8.808l.007.202q.082 1.826.909 2.888a3 3 0 0 0 .2.234 3 3 0 0 0 .28.267q.971.825 2.525.87l.183.003.227-.002q1.082-.019 1.938-.224l.007-.002a11 11 0 0 0 .298-.076q.765-.208 1.568-.546l.09-.038v1.848l-.246.104q-.777.32-1.54.497l-.158.035-.121.025q-.921.179-2.159.179a9 9 0 0 1 -.282-.005q-1.517-.049-2.733-.632a6 6 0 0 1 -.213-.107 5 5 0 0 1 -.336-.194q-1.127-.708-1.804-1.944l-.044-.082a6 6 0 0 1 -.15-.307q-.59-1.299-.628-3.065l-.002-.24.003-.262q.039-1.827.627-3.189l.078-.173a7 7 0 0 1 .114-.232q.694-1.344 1.878-2.096a5 5 0 0 1 1-.489q.841-.302 1.827-.325l.161-.002.205.003q1.479.041 2.571.677l.068.04q1.188.72 1.824 2.028a6 6 0 0 1 .149.334q.445 1.09.483 2.465zm-2.208-.408q-.044-1.716-.768-2.652a2 2 0 0 0 -.16-.197q-.747-.823-2.192-.823l-.187.004q-1.37.056-2.189.955l-.012.013q-.827.918-1.023 2.509l-.021.191zM212.968 77h2.112v18.24h-1.704l-.312-1.728h-.096a5 5 0 0 1 -.27.346q-.462.533-1.111.95l-.155.096a3 3 0 0 1 -.217.119q-.865.435-2.129.456l-.126.001-.223-.004q-2.245-.074-3.617-1.664-1.44-1.668-1.44-4.98l.001-.205q.041-2.928 1.252-4.551a5 5 0 0 1 .199-.248 5 5 0 0 1 .185-.205q1.417-1.487 3.667-1.487l.184.002q1.363.033 2.252.55a6 6 0 0 1 .231.141q.792.51 1.317 1.203zm.024 12.24v-.384l-.002-.223q-.034-2.146-.73-3.36l-.06-.101a2 2 0 0 0 -.168-.239q-.833-1.045-2.76-1.045-1.7 0-2.552 1.35l-.004.006a4 4 0 0 0 -.128.218q-.689 1.252-.722 3.214l-.002.204.002.214q.038 2.15.85 3.362a3 3 0 0 0 .124.173q.833 1.077 2.393 1.099h.063l.189-.002q1.89-.05 2.679-1.114.795-1.072.827-3.194zm5.568-6.864h2.112V95.24h-2.112zm1.08-4.824c-1.67 0-1.67 2.688 0 2.688s1.67-2.688 0-2.688zm11.808 17.544-.066.031q-.328.147-.894.245l-.232.037q-.377.053-.736.067a6 6 0 0 1 -.232.004 6 6 0 0 1 -.25-.005q-.649-.029-1.231-.208a5 5 0 0 1 -.379-.135q-.817-.334-1.336-1.142l-.044-.07a3 3 0 0 1 -.087-.154q-.437-.836-.441-2.244v-7.514h-1.824V83l1.848-.84.84-2.736h1.248v2.952h3.72v1.632h-3.72v7.44l.002.145q.033 1.066.562 1.595.543.543 1.387.563l.065.001a6 6 0 0 0 .302-.008q.257-.014.52-.051l.162-.025.115-.02q.426-.075.701-.16zm14.25-6.114.002-.198v-.038q-.006-1.912-.621-3.291a6 6 0 0 0 -.135-.283l-.004-.008q-.756-1.47-2.084-2.248a5 5 0 0 0 -.536-.275q-1.138-.505-2.548-.505-2.544 0-4.11 1.469a5 5 0 0 0 -.258.259 5 5 0 0 0 -.252.292q-1.31 1.639-1.354 4.43l-.002.198.002.235q.036 1.771.618 3.09a6 6 0 0 0 .148.311l.084.159q.756 1.383 2.016 2.121 1.218.713 2.746.774a7 7 0 0 0 .29.006q2.547 0 4.123-1.492a6 6 0 0 0 .257-.26q1.569-1.697 1.618-4.746zm-2.182-.198-.002.212q-.038 2.014-.806 3.258l-.092.142q-.873 1.292-2.752 1.331l-.116.001-.18-.003q-1.807-.059-2.676-1.329-.912-1.332-.912-3.612l.002-.212q.041-2.129.91-3.364a3 3 0 0 1 .149-.195q.867-1.041 2.537-1.098l.194-.003.182.003q1.771.056 2.62 1.217l.054.076a4 4 0 0 1 .146.23q.736 1.252.742 3.314zm12.268-4.56-.139-.03q-.254-.052-.545-.09-.372-.048-.708-.048a4 4 0 0 0 -.32.015q-.806.074-1.528.525a3.7 3.7 0 0 0 -.734.601q-.372.395-.646.911-.516.972-.516 2.268v6.864h-2.112V82.376h1.728l.24 2.352h.096a7 7 0 0 1 .329-.502q.537-.743 1.279-1.322.922-.719 2.159-.765l.169-.003.137.001q.302.006.643.035l.103.01q.356.035.629.098z" fill="#62628c" stroke="#62628c" stroke-linejoin="round"/></svg>