<svg width="128" height="128" xmlns="http://www.w3.org/2000/svg"><mask id="a"><path d="m0 0h128v128h-128z" fill="#fff"/><path d="M86 67.5s-4.5 4-8.5-1" stroke="#000" stroke-width="4" stroke-linecap="round" fill="none"/></mask><path d="M74 93.5c7.5-4 8-7.5 7-14.5l27.5-7c3 16.5-.5 35-17 44l-29-5z" fill="#fff"/><path d="M47.5 89.5c6 5 16.5 8.5 26.5 4 0 3.5-1 5-2.5 6 2.5 1 6 1 9.5.5-3 6-7 7-13 9 5.5 3 18 2 28-3-.5 4-1.5 7-4.5 10-21.5 9-52.5 7.5-67-12v-15z" fill="#fff"/><path d="M42 83c1.5 3 3.5 5 5.5 6.5.5 2.5 1.5 4.5 4.5 6.5-7 0-11-2-14-6-1.5 2-1.5 4.5-.5 6.5-2.5 1.5-4.5.5-6.5-.5 1 4 2 7 4 9-4-.5-6.5-1.5-9.5-3.5 0 1-.5 2-1 2.5-2.5-3-6-10.5-5-21l12.5-9z" fill="#fff"/><path d="M19.5 83c1-16 11-25 17.5-29 3.43133-2.111588-2.5 14 5 29-1 0-1.5 2-1 3.5-3.5-.5-7.5-4.5-9-9.5-3 4-2 10 0 15-5.5-1-8-6-9.5-10.5-1 1-2 1.5-3 1.5z" fill="#fff"/><path d="M63 76c-1.5-1-6-5.5-3-6.5 14.4-4.8 19-18.5 20.5-22.5.780822-2.082192 7.5 7.5 8.5 11.5 4-3.5 6-7.5 7.5-11.5.780822-2.082192 11 14 12 25-7.5 2-11 7-12 7z" fill="#fff" mask="url(#a)"/><path d="M91.5 83c-1-1-3.5-2-6-2.5s-6-.5-10 0-10.5-2-12.5-4.5c-.5-.5 4-3.5 7.5-3 7 1 15 1 19.5-1.5 3.141509-1.745283 5.5 1 6.5 2s3 3 2 4c-1 1-6 6.5-7 5.5z" fill="#fff"/><path d="M28.5 38.5c-1.5 7-2 12-4.5 11.5s-4-4-3.5-8.5 0-12 11-23.5 32-17 52-7.5c5.552032 2.902874 7 5 7.5 7s-3 5-11 0h-31.5zM102.5 24c1.5 1.5 3.5 4.5 2.5 6s-5-2.5-8.5-3.5-2-4.5-.5-5.5c3-2 5 1.5 6.5 3z" fill="#fff"/><path d="M76 15.5s4.5 1.5 6.5 3.5 1.5 6.5-5.5 4.5h-24l-18 19s-2 3.5-4.5 2.5-2.5-4-2-6.5 3-9 6.5-13 17.5-18.5 41-10zM87.5 27c-1-1 1-3 4-1.5s6.5 5 6.5 7-1.5 2-3.5 1-2-2-4.5-2-3.5-1.5-2.5-2 2-.5 0-2.5z" fill="#fff"/><path d="M77 23.5c-2.5 1.5-2 2.5-3 3.5s-3 2-6.5 1c-11.556604-3.301887-23 5.5-26 19-.658824 2.964706-2.5 1.5-3 0s-2 1.5-3 2.5-2.5 1-2.5-1 3-10.5 5-14 11.506098-16.054879 25.5-14.5c6.530488.72561 10.5 2.5 13.5 3.5z" fill="#fff"/></svg>