<svg width="16" height="16" xmlns="http://www.w3.org/2000/svg"><path d="M8.406 2.024a1.063 1.063 0 011.101.882l.045.228a1.488 1.488 0 002.019 1.13l.226-.076a1.063 1.063 0 011.338.483l.406.682a1.06 1.06 0 01-.238 1.365l-.18.152a1.488 1.488 0 000 2.26l.18.152a1.06 1.06 0 01.238 1.365l-.406.682a1.063 1.063 0 01-1.338.483l-.226-.076a1.488 1.488 0 00-2.02 1.13l-.044.228a1.063 1.063 0 01-1.1.882h-.813a1.063 1.063 0 01-1.101-.882l-.045-.228a1.488 1.488 0 00-2.019-1.13l-.226.076a1.063 1.063 0 01-1.338-.483l-.406-.682a1.06 1.06 0 01.238-1.365l.18-.151a1.488 1.488 0 000-2.261l-.18-.152a1.06 1.06 0 01-.238-1.365l.406-.682a1.063 1.063 0 011.338-.483l.226.076a1.488 1.488 0 002.019-1.13l.045-.228a1.063 1.063 0 011.1-.882ZM8 10.126a2.125 2.125 0 000-4.25 2.125 2.125 0 000 4.25" fill="none" stroke="#000" stroke-width="2.5" opacity=".8"/><path d="M8.406 2.024a1.063 1.063 0 011.101.882l.045.228a1.488 1.488 0 002.019 1.13l.226-.076a1.063 1.063 0 011.338.483l.406.682a1.06 1.06 0 01-.238 1.365l-.18.152a1.488 1.488 0 000 2.26l.18.152a1.06 1.06 0 01.238 1.365l-.406.682a1.063 1.063 0 01-1.338.483l-.226-.076a1.488 1.488 0 00-2.02 1.13l-.044.228a1.063 1.063 0 01-1.1.882h-.813a1.063 1.063 0 01-1.101-.882l-.045-.228a1.488 1.488 0 00-2.019-1.13l-.226.076a1.063 1.063 0 01-1.338-.483l-.406-.682a1.06 1.06 0 01.238-1.365l.18-.151a1.488 1.488 0 000-2.261l-.18-.152a1.06 1.06 0 01-.238-1.365l.406-.682a1.063 1.063 0 011.338-.483l.226.076a1.488 1.488 0 002.019-1.13l.045-.228a1.063 1.063 0 011.1-.882ZM8 10.126a2.125 2.125 0 000-4.25 2.125 2.125 0 000 4.25" fill="#def"/></svg>