<svg width="16" height="16" xmlns="http://www.w3.org/2000/svg"><path d="M8.478.97a1.25 1.25 0 011.295 1.037l.053.268a1.75 1.75 0 002.375 1.33l.266-.09a1.25 1.25 0 011.574.569l.478.802a1.25 1.25 0 01-.28 1.606l-.212.178a1.75 1.75 0 000 2.66l.212.178a1.25 1.25 0 01.28 1.606l-.478.802a1.25 1.25 0 01-1.574.569l-.266-.09a1.75 1.75 0 00-2.376 1.33l-.052.268a1.25 1.25 0 01-1.295 1.037h-.956a1.25 1.25 0 01-1.295-1.037l-.053-.268a1.75 1.75 0 00-2.375-1.33l-.266.09a1.25 1.25 0 01-1.574-.569l-.478-.802a1.25 1.25 0 01.28-1.606l.212-.178a1.75 1.75 0 000-2.66l-.212-.178a1.25 1.25 0 01-.28-1.606l.478-.802a1.25 1.25 0 011.574-.569l.266.09a1.75 1.75 0 002.375-1.33l.053-.268A1.25 1.25 0 017.522.97ZM8 10.5a2.5 2.5 0 000-5 2.5 2.5 0 000 5Z" fill="#def"/></svg>