<svg width="16" height="16" xmlns="http://www.w3.org/2000/svg"><mask id="a"><path d="m0 0h16v16h-16z" fill="#fff"/><path d="M10.922 10.842c.47.193.264.601.47.859s.618.133.748.66-1.867 3.115-2.942 2.673-.674-3.687-.211-3.97.668.096.995.058.47-.473.94-.28zM5.078 10.843c-.47.193-.264.601-.47.859s-.618.133-.748.66 1.867 3.115 2.942 2.673.674-3.687.211-3.97-.668.096-.995.058-.47-.473-.94-.28" stroke="#000"/></mask><path d="M6.25 4c0 3.25-2.25 3.5-2.25 6.5a1 1 0 008 0c0-3-2.25-3.25-2.25-6.5v-1c-.25-2-3.25-2-3.5 0z" fill="none" stroke="#def" stroke-width="1.4" stroke-linecap="round" mask="url(#a)"/><g fill="#def"><path d="M6.5 5s.25-.25.5-.5.5.75 1 .75.75-1 1-.75l.5.5v-1.75a1 1 0 00-3 0z" mask="url(#a)"/><path d="M10.922 10.842c.47.193.264.601.47.859s.618.133.748.66-1.867 3.115-2.942 2.673-.674-3.687-.211-3.97.668.096.995.058.47-.473.94-.28zM5.078 10.843c-.47.193-.264.601-.47.859s-.618.133-.748.66 1.867 3.115 2.942 2.673.674-3.687.211-3.97-.668.096-.995.058-.47-.473-.94-.28"/></g></svg>