<svg height="16" width="16" xmlns="http://www.w3.org/2000/svg"><circle fill="#00f" cx="11.1" cy="10.672" r="4.9"/><circle fill="red" cx="8" cy="5.328" r="4.9"/><circle fill="#0f0" cx="4.9" cy="10.672" r="4.9"/><path fill="#f0f" d="M9.738 9.903A4.9 4.9 0 0012.825 6.086 4.9 4.9 0 008 6.88z"/><path fill="#0ff" d="M6.26 9.915A4.9 4.9 0 008 14.465 4.9 4.9 0 009.738 9.904z"/><path d="M8 6.879A4.9 4.9 0 003.146 6.097 4.9 4.9 0 006.26 9.915z" fill="#ff0"/><path fill="#fff" d="M8 6.879A4.9 4.9 0 006.26 9.915 4.9 4.9 0 009.74 9.915 4.9 4.9 0 008 6.879"/></svg>